<svg xmlns="http://www.w3.org/2000/svg" xmlns:xlink="http://www.w3.org/1999/xlink" width="500" zoomAndPan="magnify" viewBox="0 0 375 374.999991" height="500" preserveAspectRatio="xMidYMid meet" version="1.0"><defs><g/><clipPath id="299b55c663"><path d="M 112 67.160156 L 259 67.160156 L 259 230.660156 L 112 230.660156 Z M 112 67.160156 " clip-rule="nonzero"/></clipPath></defs><rect x="-37.5" width="450" fill="#ffffff" y="-37.499999" height="449.999989" fill-opacity="1"/><rect x="-37.5" width="450" fill="#ffffff" y="-37.499999" height="449.999989" fill-opacity="1"/><rect x="-37.5" width="450" fill="#ffffff" y="-37.499999" height="449.999989" fill-opacity="1"/><g clip-path="url(#299b55c663)"><path fill="#1db872" d="M 191.410156 67.269531 C 189.367188 67.269531 187.324219 67.363281 185.289062 67.550781 C 183.25 67.738281 181.226562 68.019531 179.214844 68.390625 C 177.203125 68.765625 175.214844 69.230469 173.246094 69.785156 C 171.277344 70.339844 169.339844 70.984375 167.429688 71.71875 C 165.523438 72.453125 163.652344 73.273438 161.820312 74.175781 C 159.984375 75.082031 158.199219 76.070312 156.457031 77.140625 C 154.714844 78.210938 153.023438 79.355469 151.390625 80.582031 C 149.753906 81.808594 148.175781 83.105469 146.660156 84.472656 C 145.144531 85.84375 143.695312 87.28125 142.3125 88.78125 C 140.925781 90.285156 139.617188 91.847656 138.375 93.472656 C 137.136719 95.09375 135.976562 96.769531 134.890625 98.5 C 133.804688 100.230469 132.804688 102.007812 131.882812 103.828125 C 130.960938 105.652344 130.125 107.511719 129.378906 109.410156 C 128.628906 111.308594 127.96875 113.238281 127.398438 115.195312 C 126.828125 117.15625 126.347656 119.136719 125.960938 121.140625 C 125.570312 123.144531 125.277344 125.160156 125.074219 127.191406 L 124.78125 139.074219 L 112.898438 160.164062 C 112.730469 160.632812 112.605469 161.117188 112.527344 161.609375 C 112.449219 162.105469 112.414062 162.601562 112.429688 163.101562 C 112.445312 163.601562 112.507812 164.09375 112.613281 164.582031 C 112.722656 165.070312 112.875 165.546875 113.074219 166.003906 C 113.269531 166.464844 113.507812 166.902344 113.789062 167.316406 C 114.066406 167.730469 114.382812 168.117188 114.738281 168.472656 C 115.089844 168.828125 115.472656 169.148438 115.886719 169.429688 C 116.296875 169.714844 116.734375 169.957031 117.191406 170.160156 L 123.859375 173.097656 C 124.410156 173.34375 124.917969 173.660156 125.378906 174.050781 C 125.839844 174.441406 126.234375 174.886719 126.5625 175.394531 C 126.894531 175.898438 127.144531 176.4375 127.316406 177.015625 C 127.488281 177.59375 127.574219 178.183594 127.574219 178.789062 L 127.574219 194.886719 C 127.574219 195.882812 127.675781 196.867188 127.871094 197.84375 C 128.070312 198.820312 128.359375 199.765625 128.742188 200.683594 C 129.125 201.605469 129.59375 202.476562 130.148438 203.304688 C 130.703125 204.128906 131.332031 204.894531 132.039062 205.597656 C 132.746094 206.300781 133.511719 206.929688 134.339844 207.484375 C 135.167969 208.039062 136.042969 208.503906 136.964844 208.886719 C 137.886719 209.269531 138.835938 209.558594 139.816406 209.753906 C 140.792969 209.953125 141.78125 210.050781 142.777344 210.054688 L 157.457031 206.164062 C 157.835938 206.164062 158.207031 206.199219 158.578125 206.273438 C 158.949219 206.347656 159.308594 206.453125 159.65625 206.597656 C 160.007812 206.742188 160.339844 206.921875 160.652344 207.128906 C 160.964844 207.339844 161.257812 207.578125 161.523438 207.84375 C 161.792969 208.109375 162.03125 208.402344 162.238281 208.714844 C 162.449219 209.027344 162.625 209.359375 162.769531 209.707031 C 162.914062 210.054688 163.023438 210.414062 163.097656 210.785156 C 163.167969 211.152344 163.207031 211.527344 163.207031 211.902344 L 163.207031 225.078125 C 163.207031 225.304688 163.21875 225.53125 163.25 225.757812 C 163.28125 225.980469 163.324219 226.203125 163.382812 226.421875 C 163.441406 226.644531 163.511719 226.859375 163.597656 227.066406 C 163.6875 227.277344 163.785156 227.480469 163.898438 227.679688 C 164.011719 227.875 164.136719 228.066406 164.273438 228.246094 C 164.414062 228.425781 164.5625 228.597656 164.722656 228.757812 C 164.882812 228.921875 165.050781 229.070312 165.230469 229.210938 C 165.410156 229.351562 165.597656 229.476562 165.796875 229.59375 C 165.992188 229.707031 166.195312 229.808594 166.40625 229.898438 C 166.613281 229.988281 166.828125 230.0625 167.046875 230.121094 C 167.265625 230.183594 167.488281 230.230469 167.714844 230.261719 C 167.941406 230.292969 168.167969 230.3125 168.394531 230.3125 C 168.621094 230.316406 168.851562 230.304688 169.074219 230.277344 C 169.300781 230.25 169.523438 230.207031 169.746094 230.152344 C 169.964844 230.097656 170.183594 230.027344 170.394531 229.941406 C 170.605469 229.859375 170.8125 229.761719 171.011719 229.652344 L 227.027344 202.96875 C 227.832031 202.523438 228.5625 201.980469 229.222656 201.339844 C 229.882812 200.699219 230.445312 199.980469 230.914062 199.191406 C 231.378906 198.398438 231.734375 197.558594 231.976562 196.671875 C 232.21875 195.789062 232.339844 194.886719 232.339844 193.96875 L 232.339844 186.207031 C 233.699219 185.152344 235.015625 184.046875 236.289062 182.890625 C 237.5625 181.734375 238.789062 180.527344 239.972656 179.277344 C 241.152344 178.023438 242.28125 176.730469 243.359375 175.390625 C 244.441406 174.050781 245.464844 172.671875 246.4375 171.253906 C 247.410156 169.835938 248.324219 168.378906 249.183594 166.890625 C 250.042969 165.402344 250.84375 163.878906 251.585938 162.328125 C 252.328125 160.777344 253.007812 159.199219 253.625 157.597656 C 254.242188 155.992188 254.796875 154.367188 255.289062 152.71875 C 255.78125 151.074219 256.207031 149.410156 256.570312 147.730469 C 256.933594 146.050781 257.230469 144.359375 257.460938 142.65625 C 257.691406 140.953125 257.855469 139.242188 257.957031 137.527344 C 258.054688 135.8125 258.085938 134.09375 258.050781 132.375 C 258.015625 130.660156 257.910156 128.945312 257.742188 127.234375 C 257.574219 125.523438 257.339844 123.824219 257.039062 122.132812 C 256.738281 120.4375 256.371094 118.761719 255.941406 117.097656 C 255.507812 115.433594 255.011719 113.789062 254.453125 112.164062 C 253.894531 110.539062 253.273438 108.9375 252.589844 107.359375 C 251.90625 105.785156 251.164062 104.234375 250.359375 102.714844 C 249.554688 101.195312 248.691406 99.710938 247.773438 98.257812 C 246.855469 96.804688 245.878906 95.386719 244.847656 94.011719 C 243.820312 92.632812 242.738281 91.296875 241.605469 90.003906 C 240.472656 88.710938 239.289062 87.460938 238.058594 86.257812 C 236.828125 85.058594 235.550781 83.902344 234.230469 82.800781 C 232.910156 81.695312 231.550781 80.644531 230.148438 79.648438 C 228.746094 78.648438 227.304688 77.707031 225.832031 76.816406 C 224.355469 75.929688 222.847656 75.101562 221.308594 74.332031 C 219.765625 73.5625 218.199219 72.851562 216.605469 72.203125 C 215.007812 71.550781 213.390625 70.964844 211.75 70.441406 C 210.109375 69.917969 208.449219 69.457031 206.773438 69.058594 C 205.097656 68.664062 203.40625 68.332031 201.703125 68.070312 C 200.003906 67.804688 198.292969 67.605469 196.574219 67.472656 C 194.855469 67.335938 193.136719 67.269531 191.410156 67.269531 Z M 191.410156 181.6875 C 189.835938 181.6875 188.265625 181.609375 186.699219 181.457031 C 185.132812 181.300781 183.578125 181.074219 182.035156 180.765625 C 180.492188 180.460938 178.964844 180.078125 177.457031 179.621094 C 175.953125 179.167969 174.472656 178.636719 173.015625 178.039062 C 171.5625 177.4375 170.140625 176.765625 168.753906 176.027344 C 167.363281 175.285156 166.015625 174.480469 164.707031 173.605469 C 163.398438 172.734375 162.132812 171.800781 160.917969 170.804688 C 159.699219 169.808594 158.535156 168.753906 157.421875 167.644531 C 156.308594 166.535156 155.253906 165.371094 154.253906 164.160156 C 153.257812 162.945312 152.320312 161.683594 151.445312 160.378906 C 150.570312 159.074219 149.761719 157.726562 149.019531 156.34375 C 148.277344 154.957031 147.605469 153.539062 147.003906 152.089844 C 146.398438 150.640625 145.871094 149.164062 145.414062 147.660156 C 144.957031 146.15625 144.574219 144.636719 144.265625 143.097656 C 143.960938 141.554688 143.730469 140.003906 143.574219 138.441406 C 143.421875 136.878906 143.34375 135.3125 143.34375 133.742188 C 143.34375 132.171875 143.421875 130.605469 143.574219 129.042969 C 143.730469 127.480469 143.960938 125.929688 144.265625 124.390625 C 144.574219 122.847656 144.957031 121.328125 145.414062 119.824219 C 145.871094 118.324219 146.398438 116.84375 147.003906 115.394531 C 147.605469 113.945312 148.277344 112.527344 149.019531 111.140625 C 149.761719 109.757812 150.570312 108.410156 151.445312 107.105469 C 152.320312 105.800781 153.257812 104.539062 154.253906 103.328125 C 155.253906 102.113281 156.308594 100.949219 157.421875 99.839844 C 158.535156 98.730469 159.699219 97.675781 160.917969 96.679688 C 162.132812 95.683594 163.398438 94.75 164.707031 93.878906 C 166.015625 93.003906 167.363281 92.199219 168.753906 91.460938 C 170.140625 90.71875 171.5625 90.046875 173.015625 89.449219 C 174.472656 88.847656 175.953125 88.316406 177.457031 87.863281 C 178.964844 87.40625 180.492188 87.027344 182.035156 86.71875 C 183.578125 86.414062 185.132812 86.183594 186.699219 86.027344 C 188.265625 85.875 189.835938 85.796875 191.410156 85.796875 C 192.984375 85.796875 194.558594 85.875 196.125 86.027344 C 197.691406 86.183594 199.246094 86.414062 200.789062 86.71875 C 202.332031 87.027344 203.859375 87.40625 205.367188 87.863281 C 206.871094 88.316406 208.351562 88.847656 209.808594 89.449219 C 211.261719 90.046875 212.683594 90.71875 214.070312 91.460938 C 215.460938 92.199219 216.808594 93.003906 218.117188 93.878906 C 219.425781 94.75 220.6875 95.683594 221.90625 96.679688 C 223.125 97.675781 224.289062 98.730469 225.402344 99.839844 C 226.515625 100.949219 227.570312 102.113281 228.570312 103.328125 C 229.566406 104.539062 230.503906 105.800781 231.378906 107.105469 C 232.253906 108.410156 233.0625 109.757812 233.804688 111.140625 C 234.546875 112.527344 235.21875 113.945312 235.820312 115.394531 C 236.421875 116.84375 236.953125 118.324219 237.410156 119.824219 C 237.867188 121.328125 238.25 122.847656 238.558594 124.390625 C 238.863281 125.929688 239.09375 127.480469 239.25 129.042969 C 239.402344 130.605469 239.480469 132.171875 239.480469 133.742188 C 239.480469 135.3125 239.402344 136.878906 239.25 138.441406 C 239.09375 140.003906 238.863281 141.554688 238.558594 143.097656 C 238.25 144.636719 237.867188 146.15625 237.410156 147.660156 C 236.953125 149.164062 236.421875 150.640625 235.820312 152.089844 C 235.21875 153.539062 234.546875 154.957031 233.804688 156.34375 C 233.0625 157.726562 232.253906 159.074219 231.378906 160.378906 C 230.503906 161.683594 229.566406 162.945312 228.570312 164.160156 C 227.570312 165.371094 226.515625 166.535156 225.402344 167.644531 C 224.289062 168.753906 223.125 169.808594 221.90625 170.804688 C 220.6875 171.800781 219.425781 172.734375 218.117188 173.605469 C 216.808594 174.480469 215.460938 175.285156 214.070312 176.027344 C 212.683594 176.765625 211.261719 177.4375 209.808594 178.039062 C 208.351562 178.636719 206.871094 179.167969 205.367188 179.621094 C 203.859375 180.078125 202.332031 180.460938 200.789062 180.765625 C 199.246094 181.074219 197.691406 181.300781 196.125 181.457031 C 194.558594 181.609375 192.984375 181.6875 191.410156 181.6875 Z M 191.410156 181.6875 " fill-opacity="1" fill-rule="nonzero"/></g><path fill="#169d60" d="M 227.011719 202.945312 C 227.816406 202.5 228.550781 201.953125 229.210938 201.3125 C 229.867188 200.671875 230.433594 199.957031 230.898438 199.164062 C 231.367188 198.371094 231.722656 197.535156 231.964844 196.648438 C 232.207031 195.761719 232.328125 194.859375 232.328125 193.941406 L 232.328125 186.207031 C 234.320312 184.664062 236.222656 183.011719 238.027344 181.25 C 239.832031 179.488281 241.535156 177.628906 243.128906 175.675781 C 244.722656 173.722656 246.199219 171.683594 247.5625 169.5625 C 248.921875 167.441406 250.160156 165.246094 251.269531 162.984375 C 252.382812 160.722656 253.359375 158.40625 254.207031 156.03125 C 255.054688 153.65625 255.761719 151.242188 256.332031 148.789062 C 256.902344 146.335938 257.332031 143.855469 257.621094 141.355469 C 257.910156 138.851562 258.054688 136.339844 258.054688 133.820312 C 258.054688 133.347656 258.054688 132.878906 258.054688 132.40625 L 226.1875 100.621094 C 227.269531 101.734375 228.300781 102.902344 229.269531 104.117188 C 230.242188 105.332031 231.152344 106.589844 232 107.890625 C 232.847656 109.195312 233.628906 110.535156 234.347656 111.914062 C 235.066406 113.292969 235.714844 114.703125 236.296875 116.144531 C 236.875 117.585938 237.382812 119.054688 237.820312 120.546875 C 238.257812 122.035156 238.621094 123.546875 238.914062 125.070312 C 239.203125 126.597656 239.417969 128.136719 239.558594 129.683594 C 239.699219 131.230469 239.761719 132.78125 239.753906 134.332031 C 239.742188 135.886719 239.65625 137.4375 239.496094 138.980469 C 239.332031 140.527344 239.097656 142.0625 238.785156 143.582031 C 238.472656 145.105469 238.089844 146.609375 237.632812 148.09375 C 237.171875 149.578125 236.644531 151.039062 236.042969 152.472656 C 235.445312 153.90625 234.777344 155.308594 234.039062 156.675781 C 233.304688 158.046875 232.503906 159.375 231.636719 160.667969 C 230.769531 161.957031 229.84375 163.203125 228.855469 164.40625 C 227.867188 165.605469 226.824219 166.757812 225.722656 167.859375 C 224.625 168.957031 223.472656 170.003906 222.273438 170.992188 C 221.070312 171.980469 219.824219 172.90625 218.53125 173.773438 C 217.238281 174.644531 215.90625 175.445312 214.539062 176.183594 C 213.167969 176.921875 211.765625 177.59375 210.328125 178.195312 C 208.894531 178.796875 207.429688 179.332031 205.945312 179.792969 C 204.457031 180.253906 202.949219 180.640625 201.425781 180.953125 C 199.898438 181.269531 198.363281 181.507812 196.8125 181.675781 C 195.265625 181.839844 193.710938 181.929688 192.152344 181.945312 C 190.597656 181.960938 189.042969 181.902344 187.488281 181.765625 C 185.9375 181.628906 184.398438 181.417969 182.867188 181.136719 C 181.335938 180.851562 179.820312 180.492188 178.324219 180.058594 C 176.828125 179.628906 175.355469 179.125 173.910156 178.550781 C 172.460938 177.976562 171.046875 177.332031 169.660156 176.621094 C 168.277344 175.910156 166.929688 175.132812 165.621094 174.289062 C 164.3125 173.445312 163.046875 172.542969 161.828125 171.578125 C 160.605469 170.613281 159.4375 169.589844 158.316406 168.511719 L 203.886719 213.960938 Z M 227.011719 202.945312 " fill-opacity="1" fill-rule="nonzero"/><path fill="#f44a5d" d="M 229.316406 132.207031 C 229.160156 132.046875 228.980469 131.925781 228.773438 131.839844 C 228.570312 131.753906 228.355469 131.714844 228.132812 131.714844 C 227.914062 131.714844 227.699219 131.753906 227.496094 131.839844 C 227.289062 131.925781 227.109375 132.046875 226.953125 132.207031 L 214.199219 144.925781 C 214.042969 145.082031 213.863281 145.203125 213.65625 145.289062 C 213.453125 145.371094 213.238281 145.414062 213.015625 145.414062 C 212.796875 145.414062 212.582031 145.371094 212.375 145.289062 C 212.171875 145.203125 211.992188 145.082031 211.832031 144.925781 C 211.675781 144.769531 211.554688 144.589844 211.46875 144.382812 C 211.386719 144.179688 211.34375 143.964844 211.34375 143.746094 C 211.34375 143.523438 211.386719 143.3125 211.46875 143.105469 C 211.554688 142.902344 211.675781 142.722656 211.832031 142.566406 L 224.585938 129.84375 C 224.742188 129.6875 224.863281 129.507812 224.949219 129.300781 C 225.035156 129.097656 225.078125 128.882812 225.078125 128.664062 C 225.078125 128.441406 225.035156 128.230469 224.949219 128.023438 C 224.863281 127.820312 224.742188 127.640625 224.585938 127.484375 C 224.429688 127.324219 224.25 127.207031 224.042969 127.121094 C 223.839844 127.035156 223.625 126.992188 223.402344 126.992188 C 223.179688 126.992188 222.96875 127.035156 222.761719 127.121094 C 222.558594 127.207031 222.375 127.324219 222.21875 127.484375 L 209.464844 140.203125 C 209.308594 140.359375 209.128906 140.480469 208.921875 140.566406 C 208.71875 140.648438 208.503906 140.691406 208.28125 140.691406 C 208.058594 140.691406 207.847656 140.648438 207.640625 140.566406 C 207.4375 140.480469 207.253906 140.359375 207.097656 140.203125 C 206.941406 140.046875 206.820312 139.867188 206.734375 139.660156 C 206.652344 139.457031 206.609375 139.246094 206.609375 139.023438 C 206.609375 138.800781 206.652344 138.589844 206.734375 138.382812 C 206.820312 138.179688 206.941406 138 207.097656 137.84375 L 219.851562 125.121094 C 220.007812 124.964844 220.128906 124.785156 220.214844 124.578125 C 220.300781 124.375 220.34375 124.160156 220.34375 123.941406 C 220.34375 123.71875 220.300781 123.507812 220.214844 123.300781 C 220.132812 123.097656 220.011719 122.914062 219.851562 122.757812 C 219.695312 122.601562 219.515625 122.480469 219.308594 122.398438 C 219.105469 122.3125 218.890625 122.269531 218.667969 122.269531 C 218.445312 122.269531 218.234375 122.3125 218.027344 122.398438 C 217.824219 122.484375 217.640625 122.601562 217.484375 122.761719 L 204.730469 135.480469 C 204.574219 135.636719 204.394531 135.757812 204.1875 135.839844 C 203.984375 135.925781 203.769531 135.96875 203.546875 135.96875 C 203.328125 135.96875 203.113281 135.925781 202.910156 135.839844 C 202.703125 135.753906 202.523438 135.632812 202.367188 135.476562 C 202.210938 135.320312 202.089844 135.140625 202.003906 134.9375 C 201.921875 134.730469 201.878906 134.519531 201.878906 134.296875 C 201.878906 134.078125 201.921875 133.863281 202.007812 133.660156 C 202.09375 133.457031 202.214844 133.277344 202.371094 133.121094 L 215.117188 120.40625 C 215.273438 120.25 215.394531 120.070312 215.480469 119.863281 C 215.566406 119.660156 215.609375 119.445312 215.609375 119.226562 C 215.609375 119.003906 215.566406 118.789062 215.480469 118.585938 C 215.394531 118.382812 215.273438 118.199219 215.117188 118.042969 C 214.960938 117.886719 214.78125 117.765625 214.574219 117.683594 C 214.371094 117.597656 214.15625 117.554688 213.933594 117.554688 C 213.710938 117.554688 213.5 117.597656 213.292969 117.683594 C 213.089844 117.765625 212.90625 117.886719 212.75 118.042969 L 192.691406 135.441406 C 188.894531 139.230469 188.925781 145.71875 191.105469 150.289062 L 169.996094 170.277344 C 173.035156 172.050781 176.25 173.421875 179.632812 174.390625 L 196.972656 156.140625 C 201.5625 158.316406 208.027344 158.347656 211.859375 154.558594 L 229.300781 134.554688 C 229.457031 134.398438 229.578125 134.21875 229.664062 134.015625 C 229.75 133.8125 229.792969 133.601562 229.792969 133.382812 C 229.792969 133.160156 229.753906 132.949219 229.671875 132.746094 C 229.589844 132.542969 229.46875 132.363281 229.316406 132.207031 Z M 229.316406 132.207031 " fill-opacity="1" fill-rule="nonzero"/><path fill="#f44a5d" d="M 176.234375 105.328125 C 167.054688 113.269531 164.550781 121.074219 168.609375 127.734375 L 150.492188 144.878906 C 151.417969 148.292969 152.753906 151.535156 154.503906 154.609375 L 174.484375 133.605469 C 181.164062 137.648438 188.984375 135.164062 196.945312 126.003906 C 204.375 117.449219 206.839844 106.886719 201.121094 101.179688 C 195.40625 95.46875 184.8125 97.921875 176.234375 105.328125 Z M 176.234375 105.328125 " fill-opacity="1" fill-rule="nonzero"/><g fill="#f44a5d" fill-opacity="1"><g transform="translate(119.166908, 278.579747)"><g><path d="M 21.109375 -32.421875 L 21.109375 -25.9375 L 9.75 -25.9375 L 9.75 -19.484375 L 20.234375 -19.484375 L 20.234375 -13 L 9.75 -13 L 9.75 0 L 2.359375 0 L 2.359375 -32.421875 Z M 21.109375 -32.421875 "/></g></g></g><g fill="#f44a5d" fill-opacity="1"><g transform="translate(141.45261, 278.579747)"><g><path d="M 4.265625 -2.390625 C 2.023438 -4.390625 0.90625 -6.945312 0.90625 -10.0625 C 0.90625 -13.175781 2.070312 -15.734375 4.40625 -17.734375 C 6.738281 -19.742188 9.617188 -20.75 13.046875 -20.75 C 16.421875 -20.75 19.269531 -19.738281 21.59375 -17.71875 C 23.914062 -15.707031 25.078125 -13.15625 25.078125 -10.0625 C 25.078125 -6.96875 23.941406 -4.414062 21.671875 -2.40625 C 19.398438 -0.40625 16.523438 0.59375 13.046875 0.59375 C 9.429688 0.59375 6.503906 -0.398438 4.265625 -2.390625 Z M 9.640625 -13.46875 C 8.742188 -12.582031 8.296875 -11.445312 8.296875 -10.0625 C 8.296875 -8.675781 8.726562 -7.539062 9.59375 -6.65625 C 10.457031 -5.78125 11.59375 -5.34375 13 -5.34375 C 14.363281 -5.34375 15.484375 -5.785156 16.359375 -6.671875 C 17.242188 -7.566406 17.6875 -8.695312 17.6875 -10.0625 C 17.6875 -11.445312 17.234375 -12.582031 16.328125 -13.46875 C 15.421875 -14.363281 14.3125 -14.8125 13 -14.8125 C 11.664062 -14.8125 10.546875 -14.363281 9.640625 -13.46875 Z M 9.640625 -13.46875 "/></g></g></g><g fill="#f44a5d" fill-opacity="1"><g transform="translate(167.432943, 278.579747)"><g><path d="M 4.265625 -2.390625 C 2.023438 -4.390625 0.90625 -6.945312 0.90625 -10.0625 C 0.90625 -13.175781 2.070312 -15.734375 4.40625 -17.734375 C 6.738281 -19.742188 9.617188 -20.75 13.046875 -20.75 C 16.421875 -20.75 19.269531 -19.738281 21.59375 -17.71875 C 23.914062 -15.707031 25.078125 -13.15625 25.078125 -10.0625 C 25.078125 -6.96875 23.941406 -4.414062 21.671875 -2.40625 C 19.398438 -0.40625 16.523438 0.59375 13.046875 0.59375 C 9.429688 0.59375 6.503906 -0.398438 4.265625 -2.390625 Z M 9.640625 -13.46875 C 8.742188 -12.582031 8.296875 -11.445312 8.296875 -10.0625 C 8.296875 -8.675781 8.726562 -7.539062 9.59375 -6.65625 C 10.457031 -5.78125 11.59375 -5.34375 13 -5.34375 C 14.363281 -5.34375 15.484375 -5.785156 16.359375 -6.671875 C 17.242188 -7.566406 17.6875 -8.695312 17.6875 -10.0625 C 17.6875 -11.445312 17.234375 -12.582031 16.328125 -13.46875 C 15.421875 -14.363281 14.3125 -14.8125 13 -14.8125 C 11.664062 -14.8125 10.546875 -14.363281 9.640625 -13.46875 Z M 9.640625 -13.46875 "/></g></g></g><g fill="#f44a5d" fill-opacity="1"><g transform="translate(193.413277, 278.579747)"><g><path d="M 3.734375 -2.484375 C 1.847656 -4.546875 0.90625 -7.070312 0.90625 -10.0625 C 0.90625 -13.050781 1.847656 -15.578125 3.734375 -17.640625 C 5.617188 -19.710938 8.015625 -20.75 10.921875 -20.75 C 13.597656 -20.75 15.800781 -19.910156 17.53125 -18.234375 L 17.53125 -33.796875 L 24.484375 -33.796875 L 24.484375 0 L 17.609375 0 L 17.609375 -2.28125 L 17.53125 -2.28125 C 15.800781 -0.363281 13.597656 0.59375 10.921875 0.59375 C 8.015625 0.59375 5.617188 -0.429688 3.734375 -2.484375 Z M 9.640625 -13.46875 C 8.742188 -12.582031 8.296875 -11.445312 8.296875 -10.0625 C 8.296875 -8.675781 8.726562 -7.539062 9.59375 -6.65625 C 10.457031 -5.78125 11.59375 -5.34375 13 -5.34375 C 14.363281 -5.34375 15.484375 -5.785156 16.359375 -6.671875 C 17.242188 -7.566406 17.6875 -8.695312 17.6875 -10.0625 C 17.6875 -11.445312 17.234375 -12.582031 16.328125 -13.46875 C 15.421875 -14.363281 14.3125 -14.8125 13 -14.8125 C 11.664062 -14.8125 10.546875 -14.363281 9.640625 -13.46875 Z M 9.640625 -13.46875 "/></g></g></g><g fill="#f44a5d" fill-opacity="1"><g transform="translate(220.258322, 278.579747)"><g><path d="M 3.03125 -31.390625 C 3.84375 -32.203125 4.8125 -32.609375 5.9375 -32.609375 C 7.0625 -32.609375 8.03125 -32.203125 8.84375 -31.390625 C 9.65625 -30.585938 10.0625 -29.617188 10.0625 -28.484375 C 10.0625 -27.359375 9.65625 -26.390625 8.84375 -25.578125 C 8.03125 -24.765625 7.0625 -24.359375 5.9375 -24.359375 C 4.8125 -24.359375 3.84375 -24.765625 3.03125 -25.578125 C 2.21875 -26.390625 1.8125 -27.359375 1.8125 -28.484375 C 1.8125 -29.617188 2.21875 -30.585938 3.03125 -31.390625 Z M 2.359375 -20.15625 L 2.359375 0 L 9.3125 0 L 9.3125 -20.15625 Z M 2.359375 -20.15625 "/></g></g></g><g fill="#f44a5d" fill-opacity="1"><g transform="translate(232.128313, 278.579747)"><g><path d="M 22.75 -9.109375 L 8.140625 -9.109375 C 8.140625 -7.703125 8.597656 -6.65625 9.515625 -5.96875 C 10.429688 -5.289062 11.425781 -4.953125 12.5 -4.953125 C 13.625 -4.953125 14.515625 -5.101562 15.171875 -5.40625 C 15.828125 -5.707031 16.570312 -6.300781 17.40625 -7.1875 L 22.4375 -4.671875 C 20.34375 -1.160156 16.859375 0.59375 11.984375 0.59375 C 8.941406 0.59375 6.332031 -0.445312 4.15625 -2.53125 C 1.988281 -4.613281 0.90625 -7.125 0.90625 -10.0625 C 0.90625 -13 1.988281 -15.515625 4.15625 -17.609375 C 6.332031 -19.703125 8.941406 -20.75 11.984375 -20.75 C 15.179688 -20.75 17.78125 -19.820312 19.78125 -17.96875 C 21.789062 -16.125 22.796875 -13.488281 22.796875 -10.0625 C 22.796875 -9.59375 22.78125 -9.273438 22.75 -9.109375 Z M 8.328125 -12.96875 L 16 -12.96875 C 15.84375 -14.019531 15.425781 -14.828125 14.75 -15.390625 C 14.082031 -15.953125 13.226562 -16.234375 12.1875 -16.234375 C 11.03125 -16.234375 10.109375 -15.929688 9.421875 -15.328125 C 8.742188 -14.722656 8.378906 -13.9375 8.328125 -12.96875 Z M 8.328125 -12.96875 "/></g></g></g><g fill="#000000" fill-opacity="1"><g transform="translate(107.690296, 296.758075)"><g><path d="M 1.96875 0 L 1.328125 0 L 1.328125 -9.34375 L 6.4375 -9.34375 L 6.4375 -8.75 L 1.96875 -8.75 L 1.96875 -4.78125 L 6.1875 -4.78125 L 6.1875 -4.171875 L 1.96875 -4.171875 Z M 1.96875 0 "/></g></g><g transform="translate(114.266638, 296.758075)"><g><path d="M 6.90625 -3.484375 C 6.90625 -2.347656 6.628906 -1.460938 6.078125 -0.828125 C 5.535156 -0.191406 4.78125 0.125 3.8125 0.125 C 3.195312 0.125 2.65625 -0.0195312 2.1875 -0.3125 C 1.726562 -0.601562 1.375 -1.023438 1.125 -1.578125 C 0.882812 -2.128906 0.765625 -2.765625 0.765625 -3.484375 C 0.765625 -4.617188 1.035156 -5.5 1.578125 -6.125 C 2.128906 -6.757812 2.882812 -7.078125 3.84375 -7.078125 C 4.800781 -7.078125 5.550781 -6.753906 6.09375 -6.109375 C 6.632812 -5.472656 6.90625 -4.597656 6.90625 -3.484375 Z M 1.421875 -3.484375 C 1.421875 -2.523438 1.628906 -1.78125 2.046875 -1.25 C 2.472656 -0.71875 3.070312 -0.453125 3.84375 -0.453125 C 4.601562 -0.453125 5.191406 -0.71875 5.609375 -1.25 C 6.035156 -1.78125 6.25 -2.523438 6.25 -3.484375 C 6.25 -4.441406 6.035156 -5.1875 5.609375 -5.71875 C 5.179688 -6.25 4.585938 -6.515625 3.828125 -6.515625 C 3.054688 -6.515625 2.460938 -6.25 2.046875 -5.71875 C 1.628906 -5.1875 1.421875 -4.441406 1.421875 -3.484375 Z M 1.421875 -3.484375 "/></g></g><g transform="translate(121.943301, 296.758075)"><g><path d="M 6.90625 -3.484375 C 6.90625 -2.347656 6.628906 -1.460938 6.078125 -0.828125 C 5.535156 -0.191406 4.78125 0.125 3.8125 0.125 C 3.195312 0.125 2.65625 -0.0195312 2.1875 -0.3125 C 1.726562 -0.601562 1.375 -1.023438 1.125 -1.578125 C 0.882812 -2.128906 0.765625 -2.765625 0.765625 -3.484375 C 0.765625 -4.617188 1.035156 -5.5 1.578125 -6.125 C 2.128906 -6.757812 2.882812 -7.078125 3.84375 -7.078125 C 4.800781 -7.078125 5.550781 -6.753906 6.09375 -6.109375 C 6.632812 -5.472656 6.90625 -4.597656 6.90625 -3.484375 Z M 1.421875 -3.484375 C 1.421875 -2.523438 1.628906 -1.78125 2.046875 -1.25 C 2.472656 -0.71875 3.070312 -0.453125 3.84375 -0.453125 C 4.601562 -0.453125 5.191406 -0.71875 5.609375 -1.25 C 6.035156 -1.78125 6.25 -2.523438 6.25 -3.484375 C 6.25 -4.441406 6.035156 -5.1875 5.609375 -5.71875 C 5.179688 -6.25 4.585938 -6.515625 3.828125 -6.515625 C 3.054688 -6.515625 2.460938 -6.25 2.046875 -5.71875 C 1.628906 -5.1875 1.421875 -4.441406 1.421875 -3.484375 Z M 1.421875 -3.484375 "/></g></g><g transform="translate(129.619965, 296.758075)"><g><path d="M 3.703125 -7.078125 C 4.210938 -7.078125 4.648438 -6.984375 5.015625 -6.796875 C 5.378906 -6.617188 5.707031 -6.3125 6 -5.875 L 6.03125 -5.875 C 6.007812 -6.40625 6 -6.929688 6 -7.453125 L 6 -9.953125 L 6.625 -9.953125 L 6.625 0 L 6.203125 0 L 6.046875 -1.0625 L 6 -1.0625 C 5.46875 -0.269531 4.707031 0.125 3.71875 0.125 C 2.757812 0.125 2.023438 -0.171875 1.515625 -0.765625 C 1.015625 -1.359375 0.765625 -2.226562 0.765625 -3.375 C 0.765625 -4.570312 1.015625 -5.488281 1.515625 -6.125 C 2.015625 -6.757812 2.742188 -7.078125 3.703125 -7.078125 Z M 3.703125 -6.515625 C 2.941406 -6.515625 2.367188 -6.242188 1.984375 -5.703125 C 1.609375 -5.171875 1.421875 -4.398438 1.421875 -3.390625 C 1.421875 -1.421875 2.1875 -0.4375 3.71875 -0.4375 C 4.5 -0.4375 5.070312 -0.660156 5.4375 -1.109375 C 5.8125 -1.566406 6 -2.320312 6 -3.375 L 6 -3.484375 C 6 -4.554688 5.816406 -5.328125 5.453125 -5.796875 C 5.097656 -6.273438 4.515625 -6.515625 3.703125 -6.515625 Z M 3.703125 -6.515625 "/></g></g><g transform="translate(137.418176, 296.758075)"><g/></g><g transform="translate(140.821497, 296.758075)"><g><path d="M 5.390625 0 L 5.21875 -1.09375 L 5.171875 -1.09375 C 4.816406 -0.644531 4.457031 -0.328125 4.09375 -0.140625 C 3.726562 0.0351562 3.289062 0.125 2.78125 0.125 C 2.101562 0.125 1.570312 -0.046875 1.1875 -0.390625 C 0.8125 -0.742188 0.625 -1.226562 0.625 -1.84375 C 0.625 -2.519531 0.90625 -3.046875 1.46875 -3.421875 C 2.039062 -3.796875 2.859375 -3.992188 3.921875 -4.015625 L 5.25 -4.0625 L 5.25 -4.515625 C 5.25 -5.179688 5.113281 -5.679688 4.84375 -6.015625 C 4.570312 -6.347656 4.140625 -6.515625 3.546875 -6.515625 C 2.898438 -6.515625 2.234375 -6.335938 1.546875 -5.984375 L 1.3125 -6.53125 C 2.070312 -6.894531 2.828125 -7.078125 3.578125 -7.078125 C 4.335938 -7.078125 4.90625 -6.875 5.28125 -6.46875 C 5.65625 -6.070312 5.84375 -5.457031 5.84375 -4.625 L 5.84375 0 Z M 2.828125 -0.453125 C 3.566406 -0.453125 4.148438 -0.660156 4.578125 -1.078125 C 5.003906 -1.503906 5.21875 -2.09375 5.21875 -2.84375 L 5.21875 -3.53125 L 4.015625 -3.484375 C 3.035156 -3.441406 2.335938 -3.289062 1.921875 -3.03125 C 1.503906 -2.769531 1.296875 -2.367188 1.296875 -1.828125 C 1.296875 -1.390625 1.425781 -1.050781 1.6875 -0.8125 C 1.957031 -0.570312 2.335938 -0.453125 2.828125 -0.453125 Z M 2.828125 -0.453125 "/></g></g><g transform="translate(147.76248, 296.758075)"><g><path d="M 6.015625 0 L 6.015625 -4.5 C 6.015625 -5.207031 5.863281 -5.71875 5.5625 -6.03125 C 5.269531 -6.351562 4.816406 -6.515625 4.203125 -6.515625 C 3.367188 -6.515625 2.757812 -6.300781 2.375 -5.875 C 1.988281 -5.457031 1.796875 -4.78125 1.796875 -3.84375 L 1.796875 0 L 1.15625 0 L 1.15625 -6.953125 L 1.703125 -6.953125 L 1.828125 -6 L 1.859375 -6 C 2.304688 -6.71875 3.109375 -7.078125 4.265625 -7.078125 C 5.847656 -7.078125 6.640625 -6.234375 6.640625 -4.546875 L 6.640625 0 Z M 6.015625 0 "/></g></g><g transform="translate(155.490321, 296.758075)"><g><path d="M 3.703125 -7.078125 C 4.210938 -7.078125 4.648438 -6.984375 5.015625 -6.796875 C 5.378906 -6.617188 5.707031 -6.3125 6 -5.875 L 6.03125 -5.875 C 6.007812 -6.40625 6 -6.929688 6 -7.453125 L 6 -9.953125 L 6.625 -9.953125 L 6.625 0 L 6.203125 0 L 6.046875 -1.0625 L 6 -1.0625 C 5.46875 -0.269531 4.707031 0.125 3.71875 0.125 C 2.757812 0.125 2.023438 -0.171875 1.515625 -0.765625 C 1.015625 -1.359375 0.765625 -2.226562 0.765625 -3.375 C 0.765625 -4.570312 1.015625 -5.488281 1.515625 -6.125 C 2.015625 -6.757812 2.742188 -7.078125 3.703125 -7.078125 Z M 3.703125 -6.515625 C 2.941406 -6.515625 2.367188 -6.242188 1.984375 -5.703125 C 1.609375 -5.171875 1.421875 -4.398438 1.421875 -3.390625 C 1.421875 -1.421875 2.1875 -0.4375 3.71875 -0.4375 C 4.5 -0.4375 5.070312 -0.660156 5.4375 -1.109375 C 5.8125 -1.566406 6 -2.320312 6 -3.375 L 6 -3.484375 C 6 -4.554688 5.816406 -5.328125 5.453125 -5.796875 C 5.097656 -6.273438 4.515625 -6.515625 3.703125 -6.515625 Z M 3.703125 -6.515625 "/></g></g><g transform="translate(163.288532, 296.758075)"><g/></g><g transform="translate(166.691853, 296.758075)"><g><path d="M 3.9375 0.125 C 2.945312 0.125 2.171875 -0.1875 1.609375 -0.8125 C 1.046875 -1.4375 0.765625 -2.3125 0.765625 -3.4375 C 0.765625 -4.582031 1.054688 -5.472656 1.640625 -6.109375 C 2.222656 -6.753906 3.019531 -7.078125 4.03125 -7.078125 C 4.632812 -7.078125 5.210938 -6.972656 5.765625 -6.765625 L 5.59375 -6.203125 C 4.988281 -6.410156 4.460938 -6.515625 4.015625 -6.515625 C 3.171875 -6.515625 2.523438 -6.25 2.078125 -5.71875 C 1.640625 -5.1875 1.421875 -4.429688 1.421875 -3.453125 C 1.421875 -2.515625 1.640625 -1.78125 2.078125 -1.25 C 2.523438 -0.71875 3.140625 -0.453125 3.921875 -0.453125 C 4.554688 -0.453125 5.144531 -0.5625 5.6875 -0.78125 L 5.6875 -0.203125 C 5.238281 0.015625 4.65625 0.125 3.9375 0.125 Z M 3.9375 0.125 "/></g></g><g transform="translate(172.916348, 296.758075)"><g><path d="M 6.90625 -3.484375 C 6.90625 -2.347656 6.628906 -1.460938 6.078125 -0.828125 C 5.535156 -0.191406 4.78125 0.125 3.8125 0.125 C 3.195312 0.125 2.65625 -0.0195312 2.1875 -0.3125 C 1.726562 -0.601562 1.375 -1.023438 1.125 -1.578125 C 0.882812 -2.128906 0.765625 -2.765625 0.765625 -3.484375 C 0.765625 -4.617188 1.035156 -5.5 1.578125 -6.125 C 2.128906 -6.757812 2.882812 -7.078125 3.84375 -7.078125 C 4.800781 -7.078125 5.550781 -6.753906 6.09375 -6.109375 C 6.632812 -5.472656 6.90625 -4.597656 6.90625 -3.484375 Z M 1.421875 -3.484375 C 1.421875 -2.523438 1.628906 -1.78125 2.046875 -1.25 C 2.472656 -0.71875 3.070312 -0.453125 3.84375 -0.453125 C 4.601562 -0.453125 5.191406 -0.71875 5.609375 -1.25 C 6.035156 -1.78125 6.25 -2.523438 6.25 -3.484375 C 6.25 -4.441406 6.035156 -5.1875 5.609375 -5.71875 C 5.179688 -6.25 4.585938 -6.515625 3.828125 -6.515625 C 3.054688 -6.515625 2.460938 -6.25 2.046875 -5.71875 C 1.628906 -5.1875 1.421875 -4.441406 1.421875 -3.484375 Z M 1.421875 -3.484375 "/></g></g><g transform="translate(180.593011, 296.758075)"><g><path d="M 6.90625 -3.484375 C 6.90625 -2.347656 6.628906 -1.460938 6.078125 -0.828125 C 5.535156 -0.191406 4.78125 0.125 3.8125 0.125 C 3.195312 0.125 2.65625 -0.0195312 2.1875 -0.3125 C 1.726562 -0.601562 1.375 -1.023438 1.125 -1.578125 C 0.882812 -2.128906 0.765625 -2.765625 0.765625 -3.484375 C 0.765625 -4.617188 1.035156 -5.5 1.578125 -6.125 C 2.128906 -6.757812 2.882812 -7.078125 3.84375 -7.078125 C 4.800781 -7.078125 5.550781 -6.753906 6.09375 -6.109375 C 6.632812 -5.472656 6.90625 -4.597656 6.90625 -3.484375 Z M 1.421875 -3.484375 C 1.421875 -2.523438 1.628906 -1.78125 2.046875 -1.25 C 2.472656 -0.71875 3.070312 -0.453125 3.84375 -0.453125 C 4.601562 -0.453125 5.191406 -0.71875 5.609375 -1.25 C 6.035156 -1.78125 6.25 -2.523438 6.25 -3.484375 C 6.25 -4.441406 6.035156 -5.1875 5.609375 -5.71875 C 5.179688 -6.25 4.585938 -6.515625 3.828125 -6.515625 C 3.054688 -6.515625 2.460938 -6.25 2.046875 -5.71875 C 1.628906 -5.1875 1.421875 -4.441406 1.421875 -3.484375 Z M 1.421875 -3.484375 "/></g></g><g transform="translate(188.269675, 296.758075)"><g><path d="M 1.78125 -3.046875 L 5.328125 -6.953125 L 6.09375 -6.953125 L 3.359375 -3.984375 L 6.328125 0 L 5.578125 0 L 2.9375 -3.515625 L 1.796875 -2.46875 L 1.796875 0 L 1.15625 0 L 1.15625 -9.953125 L 1.796875 -9.953125 L 1.796875 -4.96875 L 1.75 -3.046875 Z M 1.78125 -3.046875 "/></g></g><g transform="translate(194.609319, 296.758075)"><g><path d="M 1.796875 0 L 1.15625 0 L 1.15625 -6.953125 L 1.796875 -6.953125 Z M 1.078125 -8.875 C 1.078125 -9.289062 1.210938 -9.5 1.484375 -9.5 C 1.609375 -9.5 1.707031 -9.441406 1.78125 -9.328125 C 1.863281 -9.222656 1.90625 -9.070312 1.90625 -8.875 C 1.90625 -8.6875 1.863281 -8.535156 1.78125 -8.421875 C 1.707031 -8.316406 1.609375 -8.265625 1.484375 -8.265625 C 1.210938 -8.265625 1.078125 -8.46875 1.078125 -8.875 Z M 1.078125 -8.875 "/></g></g><g transform="translate(197.571232, 296.758075)"><g><path d="M 6.015625 0 L 6.015625 -4.5 C 6.015625 -5.207031 5.863281 -5.71875 5.5625 -6.03125 C 5.269531 -6.351562 4.816406 -6.515625 4.203125 -6.515625 C 3.367188 -6.515625 2.757812 -6.300781 2.375 -5.875 C 1.988281 -5.457031 1.796875 -4.78125 1.796875 -3.84375 L 1.796875 0 L 1.15625 0 L 1.15625 -6.953125 L 1.703125 -6.953125 L 1.828125 -6 L 1.859375 -6 C 2.304688 -6.71875 3.109375 -7.078125 4.265625 -7.078125 C 5.847656 -7.078125 6.640625 -6.234375 6.640625 -4.546875 L 6.640625 0 Z M 6.015625 0 "/></g></g><g transform="translate(205.299073, 296.758075)"><g><path d="M 6.578125 -6.953125 L 6.578125 -6.515625 L 5.140625 -6.421875 C 5.523438 -5.941406 5.71875 -5.414062 5.71875 -4.84375 C 5.71875 -4.175781 5.492188 -3.632812 5.046875 -3.21875 C 4.609375 -2.800781 4.015625 -2.59375 3.265625 -2.59375 C 2.941406 -2.59375 2.71875 -2.609375 2.59375 -2.640625 C 2.34375 -2.503906 2.148438 -2.347656 2.015625 -2.171875 C 1.890625 -1.992188 1.828125 -1.800781 1.828125 -1.59375 C 1.828125 -1.375 1.910156 -1.210938 2.078125 -1.109375 C 2.242188 -1.003906 2.523438 -0.953125 2.921875 -0.953125 L 4.140625 -0.953125 C 4.890625 -0.953125 5.460938 -0.800781 5.859375 -0.5 C 6.265625 -0.195312 6.46875 0.25 6.46875 0.84375 C 6.46875 1.582031 6.171875 2.148438 5.578125 2.546875 C 4.984375 2.941406 4.132812 3.140625 3.03125 3.140625 C 2.15625 3.140625 1.476562 2.972656 1 2.640625 C 0.519531 2.304688 0.28125 1.835938 0.28125 1.234375 C 0.28125 0.753906 0.425781 0.359375 0.71875 0.046875 C 1.019531 -0.265625 1.425781 -0.476562 1.9375 -0.59375 C 1.726562 -0.6875 1.5625 -0.816406 1.4375 -0.984375 C 1.3125 -1.148438 1.25 -1.335938 1.25 -1.546875 C 1.25 -2.015625 1.546875 -2.425781 2.140625 -2.78125 C 1.734375 -2.945312 1.414062 -3.207031 1.1875 -3.5625 C 0.957031 -3.914062 0.84375 -4.320312 0.84375 -4.78125 C 0.84375 -5.476562 1.0625 -6.035156 1.5 -6.453125 C 1.945312 -6.867188 2.546875 -7.078125 3.296875 -7.078125 C 3.753906 -7.078125 4.109375 -7.035156 4.359375 -6.953125 Z M 0.953125 1.171875 C 0.953125 2.128906 1.664062 2.609375 3.09375 2.609375 C 4.914062 2.609375 5.828125 2.023438 5.828125 0.859375 C 5.828125 0.441406 5.679688 0.140625 5.390625 -0.046875 C 5.109375 -0.234375 4.648438 -0.328125 4.015625 -0.328125 L 2.875 -0.328125 C 1.59375 -0.328125 0.953125 0.171875 0.953125 1.171875 Z M 1.484375 -4.78125 C 1.484375 -4.25 1.644531 -3.832031 1.96875 -3.53125 C 2.300781 -3.238281 2.738281 -3.09375 3.28125 -3.09375 C 3.863281 -3.09375 4.304688 -3.238281 4.609375 -3.53125 C 4.921875 -3.820312 5.078125 -4.25 5.078125 -4.8125 C 5.078125 -5.40625 4.914062 -5.847656 4.59375 -6.140625 C 4.28125 -6.429688 3.84375 -6.578125 3.28125 -6.578125 C 2.71875 -6.578125 2.273438 -6.414062 1.953125 -6.09375 C 1.640625 -5.78125 1.484375 -5.34375 1.484375 -4.78125 Z M 1.484375 -4.78125 "/></g></g><g transform="translate(212.150496, 296.758075)"><g/></g><g transform="translate(215.553817, 296.758075)"><g><path d="M 1.796875 0 L 1.15625 0 L 1.15625 -6.953125 L 1.796875 -6.953125 Z M 1.078125 -8.875 C 1.078125 -9.289062 1.210938 -9.5 1.484375 -9.5 C 1.609375 -9.5 1.707031 -9.441406 1.78125 -9.328125 C 1.863281 -9.222656 1.90625 -9.070312 1.90625 -8.875 C 1.90625 -8.6875 1.863281 -8.535156 1.78125 -8.421875 C 1.707031 -8.316406 1.609375 -8.265625 1.484375 -8.265625 C 1.210938 -8.265625 1.078125 -8.46875 1.078125 -8.875 Z M 1.078125 -8.875 "/></g></g><g transform="translate(218.515729, 296.758075)"><g><path d="M 3.703125 -7.078125 C 4.210938 -7.078125 4.648438 -6.984375 5.015625 -6.796875 C 5.378906 -6.617188 5.707031 -6.3125 6 -5.875 L 6.03125 -5.875 C 6.007812 -6.40625 6 -6.929688 6 -7.453125 L 6 -9.953125 L 6.625 -9.953125 L 6.625 0 L 6.203125 0 L 6.046875 -1.0625 L 6 -1.0625 C 5.46875 -0.269531 4.707031 0.125 3.71875 0.125 C 2.757812 0.125 2.023438 -0.171875 1.515625 -0.765625 C 1.015625 -1.359375 0.765625 -2.226562 0.765625 -3.375 C 0.765625 -4.570312 1.015625 -5.488281 1.515625 -6.125 C 2.015625 -6.757812 2.742188 -7.078125 3.703125 -7.078125 Z M 3.703125 -6.515625 C 2.941406 -6.515625 2.367188 -6.242188 1.984375 -5.703125 C 1.609375 -5.171875 1.421875 -4.398438 1.421875 -3.390625 C 1.421875 -1.421875 2.1875 -0.4375 3.71875 -0.4375 C 4.5 -0.4375 5.070312 -0.660156 5.4375 -1.109375 C 5.8125 -1.566406 6 -2.320312 6 -3.375 L 6 -3.484375 C 6 -4.554688 5.816406 -5.328125 5.453125 -5.796875 C 5.097656 -6.273438 4.515625 -6.515625 3.703125 -6.515625 Z M 3.703125 -6.515625 "/></g></g><g transform="translate(226.31394, 296.758075)"><g><path d="M 3.96875 0.125 C 2.957031 0.125 2.171875 -0.179688 1.609375 -0.796875 C 1.046875 -1.421875 0.765625 -2.296875 0.765625 -3.421875 C 0.765625 -4.523438 1.035156 -5.410156 1.578125 -6.078125 C 2.117188 -6.742188 2.851562 -7.078125 3.78125 -7.078125 C 4.601562 -7.078125 5.25 -6.789062 5.71875 -6.21875 C 6.195312 -5.65625 6.4375 -4.882812 6.4375 -3.90625 L 6.4375 -3.390625 L 1.421875 -3.390625 C 1.429688 -2.429688 1.65625 -1.703125 2.09375 -1.203125 C 2.53125 -0.703125 3.15625 -0.453125 3.96875 -0.453125 C 4.363281 -0.453125 4.710938 -0.476562 5.015625 -0.53125 C 5.316406 -0.582031 5.695312 -0.703125 6.15625 -0.890625 L 6.15625 -0.3125 C 5.757812 -0.144531 5.394531 -0.03125 5.0625 0.03125 C 4.738281 0.09375 4.375 0.125 3.96875 0.125 Z M 3.78125 -6.515625 C 3.113281 -6.515625 2.578125 -6.296875 2.171875 -5.859375 C 1.765625 -5.421875 1.53125 -4.785156 1.46875 -3.953125 L 5.765625 -3.953125 C 5.765625 -4.753906 5.585938 -5.378906 5.234375 -5.828125 C 4.890625 -6.285156 4.40625 -6.515625 3.78125 -6.515625 Z M 3.78125 -6.515625 "/></g></g><g transform="translate(233.504415, 296.758075)"><g><path d="M 5.390625 0 L 5.21875 -1.09375 L 5.171875 -1.09375 C 4.816406 -0.644531 4.457031 -0.328125 4.09375 -0.140625 C 3.726562 0.0351562 3.289062 0.125 2.78125 0.125 C 2.101562 0.125 1.570312 -0.046875 1.1875 -0.390625 C 0.8125 -0.742188 0.625 -1.226562 0.625 -1.84375 C 0.625 -2.519531 0.90625 -3.046875 1.46875 -3.421875 C 2.039062 -3.796875 2.859375 -3.992188 3.921875 -4.015625 L 5.25 -4.0625 L 5.25 -4.515625 C 5.25 -5.179688 5.113281 -5.679688 4.84375 -6.015625 C 4.570312 -6.347656 4.140625 -6.515625 3.546875 -6.515625 C 2.898438 -6.515625 2.234375 -6.335938 1.546875 -5.984375 L 1.3125 -6.53125 C 2.070312 -6.894531 2.828125 -7.078125 3.578125 -7.078125 C 4.335938 -7.078125 4.90625 -6.875 5.28125 -6.46875 C 5.65625 -6.070312 5.84375 -5.457031 5.84375 -4.625 L 5.84375 0 Z M 2.828125 -0.453125 C 3.566406 -0.453125 4.148438 -0.660156 4.578125 -1.078125 C 5.003906 -1.503906 5.21875 -2.09375 5.21875 -2.84375 L 5.21875 -3.53125 L 4.015625 -3.484375 C 3.035156 -3.441406 2.335938 -3.289062 1.921875 -3.03125 C 1.503906 -2.769531 1.296875 -2.367188 1.296875 -1.828125 C 1.296875 -1.390625 1.425781 -1.050781 1.6875 -0.8125 C 1.957031 -0.570312 2.335938 -0.453125 2.828125 -0.453125 Z M 2.828125 -0.453125 "/></g></g><g transform="translate(240.445398, 296.758075)"><g/></g><g transform="translate(243.848719, 296.758075)"><g><path d="M 5.828125 -3.296875 L 2.03125 -3.296875 L 0.71875 0 L 0 0 L 3.765625 -9.390625 L 4.171875 -9.390625 L 7.859375 0 L 7.125 0 Z M 2.265625 -3.890625 L 5.609375 -3.890625 L 4.328125 -7.25 C 4.222656 -7.519531 4.097656 -7.890625 3.953125 -8.359375 C 3.835938 -7.953125 3.710938 -7.582031 3.578125 -7.25 Z M 2.265625 -3.890625 "/></g></g><g transform="translate(251.710902, 296.758075)"><g><path d="M 4.140625 0.125 C 3.066406 0.125 2.285156 -0.273438 1.796875 -1.078125 L 1.75 -1.078125 L 1.765625 -0.53125 C 1.785156 -0.21875 1.796875 0.125 1.796875 0.5 L 1.796875 3.140625 L 1.15625 3.140625 L 1.15625 -6.953125 L 1.703125 -6.953125 L 1.828125 -5.953125 L 1.859375 -5.953125 C 2.335938 -6.703125 3.101562 -7.078125 4.15625 -7.078125 C 5.09375 -7.078125 5.804688 -6.769531 6.296875 -6.15625 C 6.785156 -5.539062 7.03125 -4.644531 7.03125 -3.46875 C 7.03125 -2.332031 6.769531 -1.445312 6.25 -0.8125 C 5.738281 -0.1875 5.035156 0.125 4.140625 0.125 Z M 4.125 -0.4375 C 4.832031 -0.4375 5.378906 -0.695312 5.765625 -1.21875 C 6.160156 -1.75 6.359375 -2.492188 6.359375 -3.453125 C 6.359375 -5.492188 5.625 -6.515625 4.15625 -6.515625 C 3.34375 -6.515625 2.742188 -6.289062 2.359375 -5.84375 C 1.984375 -5.394531 1.796875 -4.664062 1.796875 -3.65625 L 1.796875 -3.453125 C 1.796875 -2.367188 1.976562 -1.59375 2.34375 -1.125 C 2.707031 -0.664062 3.300781 -0.4375 4.125 -0.4375 Z M 4.125 -0.4375 "/></g></g><g transform="translate(259.509113, 296.758075)"><g><path d="M 4.140625 0.125 C 3.066406 0.125 2.285156 -0.273438 1.796875 -1.078125 L 1.75 -1.078125 L 1.765625 -0.53125 C 1.785156 -0.21875 1.796875 0.125 1.796875 0.5 L 1.796875 3.140625 L 1.15625 3.140625 L 1.15625 -6.953125 L 1.703125 -6.953125 L 1.828125 -5.953125 L 1.859375 -5.953125 C 2.335938 -6.703125 3.101562 -7.078125 4.15625 -7.078125 C 5.09375 -7.078125 5.804688 -6.769531 6.296875 -6.15625 C 6.785156 -5.539062 7.03125 -4.644531 7.03125 -3.46875 C 7.03125 -2.332031 6.769531 -1.445312 6.25 -0.8125 C 5.738281 -0.1875 5.035156 0.125 4.140625 0.125 Z M 4.125 -0.4375 C 4.832031 -0.4375 5.378906 -0.695312 5.765625 -1.21875 C 6.160156 -1.75 6.359375 -2.492188 6.359375 -3.453125 C 6.359375 -5.492188 5.625 -6.515625 4.15625 -6.515625 C 3.34375 -6.515625 2.742188 -6.289062 2.359375 -5.84375 C 1.984375 -5.394531 1.796875 -4.664062 1.796875 -3.65625 L 1.796875 -3.453125 C 1.796875 -2.367188 1.976562 -1.59375 2.34375 -1.125 C 2.707031 -0.664062 3.300781 -0.4375 4.125 -0.4375 Z M 4.125 -0.4375 "/></g></g></g></svg>