<svg xmlns="http://www.w3.org/2000/svg" xmlns:xlink="http://www.w3.org/1999/xlink" width="500" zoomAndPan="magnify" viewBox="0 0 375 374.999991" height="500" preserveAspectRatio="xMidYMid meet" version="1.0"><rect x="-37.5" width="450" fill="#ffffff" y="-37.499999" height="449.999989" fill-opacity="1"/><rect x="-37.5" width="450" fill="#ffffff" y="-37.499999" height="449.999989" fill-opacity="1"/><path fill="#000000" d="M 250.082031 147.375 C 248.847656 146.230469 246.921875 146.304688 245.777344 147.539062 L 221.042969 174.234375 L 219.355469 172.667969 L 244.089844 145.976562 C 245.234375 144.742188 245.160156 142.816406 243.925781 141.671875 C 242.695312 140.53125 240.769531 140.601562 239.621094 141.835938 L 214.886719 168.53125 L 213.203125 166.96875 L 237.933594 140.269531 C 239.078125 139.039062 239.003906 137.113281 237.773438 135.972656 C 236.542969 134.828125 234.613281 134.902344 233.46875 136.136719 L 208.738281 162.828125 L 207.050781 161.265625 L 231.785156 134.574219 C 232.925781 133.335938 232.855469 131.410156 231.617188 130.269531 C 230.386719 129.125 228.460938 129.199219 227.316406 130.433594 L 202.585938 157.128906 L 202.574219 157.117188 L 201.800781 157.921875 C 201.121094 158.671875 200.5 159.414062 199.9375 160.175781 L 199.914062 160.207031 C 197.820312 163.042969 196.628906 166 196.632812 169.460938 C 196.644531 173.089844 197.917969 176.523438 200.242188 179.347656 C 198.683594 181 191.722656 187.785156 183.335938 195.925781 C 173.3125 185.269531 164.457031 175.816406 162.671875 173.738281 C 165.265625 170.863281 166.792969 167.285156 166.976562 163.441406 C 167.152344 159.769531 166.035156 156.585938 163.960938 153.476562 L 163.96875 153.476562 L 163.933594 153.4375 C 163.382812 152.609375 162.761719 151.785156 162.078125 150.960938 L 161.300781 150.070312 L 161.285156 150.082031 L 158.25 146.914062 C 141.546875 132.328125 133.238281 131.0625 128.371094 135.226562 C 122.679688 140.105469 120.746094 148.585938 133.523438 168.160156 L 136.332031 171.90625 L 136.335938 171.910156 L 136.644531 172.28125 C 140.066406 176.425781 143.355469 178.773438 148.097656 179.367188 C 151.699219 179.816406 155.269531 179.046875 158.417969 177.207031 C 160.195312 179.359375 168.261719 189.9375 177.273438 201.800781 C 164.875 213.804688 151.480469 226.742188 148 230.195312 C 145.558594 232.523438 144.214844 234.105469 144.214844 234.105469 C 141.84375 236.664062 142.015625 240.671875 144.589844 243.0625 C 147.167969 245.449219 151.175781 245.3125 153.550781 242.753906 C 153.550781 242.753906 155.226562 240.980469 156.703125 239.253906 L 156.707031 239.265625 C 158.871094 236.773438 170.945312 222.28125 182.402344 208.554688 C 193.144531 222.710938 203.808594 236.789062 205.839844 239.351562 L 205.84375 239.335938 C 207.320312 241.238281 209.011719 243.203125 209.011719 243.203125 C 211.394531 246.03125 215.636719 246.375 218.484375 243.96875 C 221.332031 241.566406 221.710938 237.324219 219.320312 234.503906 C 219.320312 234.503906 217.976562 232.757812 215.503906 230.171875 C 212.226562 226.601562 200.210938 213.863281 188.429688 201.34375 C 196.101562 192.179688 202.542969 184.523438 204.101562 182.808594 C 206.984375 184.675781 210.308594 185.558594 213.722656 185.289062 C 218.214844 184.9375 221.417969 182.875 224.816406 179.125 L 225.125 178.78125 L 225.132812 178.777344 L 250.242188 151.675781 C 251.386719 150.441406 251.3125 148.519531 250.082031 147.375 " fill-opacity="1" fill-rule="nonzero"/></svg>